<?xml version="1.0" encoding="UTF-8" standalone="no"?>
<!-- Created with Inkscape (http://www.inkscape.org/) -->

<svg
   width="84.211441mm"
   height="8.4984169mm"
   viewBox="0 0 84.211441 8.4984169"
   version="1.1"
   id="svg5"
   inkscape:version="1.1.2 (0a00cf5339, 2022-02-04)"
   sodipodi:docname="buzzer-logo.svg"
   xmlns:inkscape="http://www.inkscape.org/namespaces/inkscape"
   xmlns:sodipodi="http://sodipodi.sourceforge.net/DTD/sodipodi-0.dtd"
   xmlns="http://www.w3.org/2000/svg"
   xmlns:svg="http://www.w3.org/2000/svg">
  <sodipodi:namedview
     id="namedview7"
     pagecolor="#ffffff"
     bordercolor="#666666"
     borderopacity="1.0"
     inkscape:pageshadow="2"
     inkscape:pageopacity="0.0"
     inkscape:pagecheckerboard="0"
     inkscape:document-units="mm"
     showgrid="false"
     fit-margin-top="0"
     fit-margin-left="0"
     fit-margin-right="0"
     fit-margin-bottom="0"
     inkscape:zoom="0.46068911"
     inkscape:cx="140.00765"
     inkscape:cy="573.05457"
     inkscape:window-width="1920"
     inkscape:window-height="1011"
     inkscape:window-x="0"
     inkscape:window-y="0"
     inkscape:window-maximized="1"
     inkscape:current-layer="layer1" />
  <defs
     id="defs2">
    <rect
       x="22.348005"
       y="313.32413"
       width="432.2121"
       height="110.98285"
       id="rect3824" />
    <rect
       x="43.356827"
       y="327.99301"
       width="539.78766"
       height="270.74142"
       id="rect1376" />
  </defs>
  <g
     inkscape:label="Layer 1"
     inkscape:groupmode="layer"
     id="layer1"
     transform="translate(-6.4314006,-84.307948)">
    <text
       xml:space="preserve"
       transform="scale(0.26458333)"
       id="text1374"
       style="font-style:normal;font-weight:normal;font-size:40px;line-height:1.25;font-family:sans-serif;white-space:pre;shape-inside:url(#rect1376);fill:#000000;fill-opacity:1;stroke:none" />
    <g
       aria-label="HACKER JEOPARDY!"
       transform="matrix(0.26458333,0,0,0.26458333,3.1025519e-8,1.783495e-4)"
       id="text3822"
       style="font-size:40px;line-height:1.25;white-space:pre;shape-inside:url(#rect3824)">
      <path
         d="m 38.987656,350.76422 v -9.08 h -10.2 v 9.08 h -4.48 v -32.12 h 4.48 v 20.72 h 10.2 v -20.72 h 4.4 v 32.12 z"
         style="font-family:Gyparody;-inkscape-font-specification:Gyparody"
         id="path1166" />
      <path
         d="m 61.787643,350.76422 -0.84,-7.4 h -9.76 l -0.76,7.4 h -4.12 l 3.08,-30.16 q 0.2,-1.96 1.68,-1.96 h 10.32 q 0.76,0 1.12,0.52 0.36,0.52 0.44,1.44 l 3,30.16 z m -2.68,-24.88 q -0.12,-0.96 -0.76,-0.96 h -4.64 q -0.6,0 -0.72,0.96 l -1.6,14.8 q 0,0.32 0.36,0.32 h 8.64 q 0.32,0 0.32,-0.32 z"
         style="font-family:Gyparody;-inkscape-font-specification:Gyparody"
         id="path1163" />
      <path
         d="m 71.827637,350.76422 q -1.8,0 -2.52,-0.68 -0.68,-0.72 -0.68,-2.6 v -23.52 q 0,-1.68 0.16,-2.72 0.2,-1.08 0.68,-1.64 0.52,-0.56 1.36,-0.76 0.88,-0.2 2.24,-0.2 h 9.52 q 1.36,0 2.24,0.2 0.88,0.2 1.36,0.76 0.52,0.56 0.68,1.64 0.2,1.04 0.2,2.72 v 18.36 h -4.12 v -14.12 q 0,-1.84 -0.56,-2.44 -0.52,-0.6 -2,-0.6 h -5.28 q -0.72,0 -1.2,0.12 -0.48,0.12 -0.76,0.48 -0.28,0.32 -0.4,0.92 -0.12,0.6 -0.12,1.52 v 18.2 q 0,1.12 0.44,1.6 0.44,0.44 1.48,0.44 h 12.4 v 2.32 z"
         style="font-family:Gyparody;-inkscape-font-specification:Gyparody"
         id="path1160" />
      <path
         d="m 104.90763,350.76422 -9.640002,-9.72 q -0.16,-0.16 -0.44,-0.16 h -0.08 v 9.88 h -4 v -32.12 h 4 v 19 h 0.08 q 0.28,0 0.44,-0.2 l 10.880002,-18.8 h 4.76 l -13.000002,20.72 11.720002,11.4 z"
         style="font-family:Gyparody;-inkscape-font-specification:Gyparody"
         id="path1157" />
      <path
         d="m 116.18761,350.76422 q -1.8,0 -2.52,-0.68 -0.68,-0.72 -0.68,-2.6 v -23.52 q 0,-1.68 0.16,-2.72 0.2,-1.08 0.68,-1.64 0.52,-0.56 1.36,-0.76 0.88,-0.2 2.24,-0.2 h 12.84 v 6.52 h -10.72 q -0.72,0 -1.2,0.12 -0.48,0.12 -0.76,0.48 -0.28,0.32 -0.4,0.92 -0.12,0.6 -0.12,1.52 v 10.56 q 0,0.6 0.6,0.6 h 12.4 v 2.32 h -12.4 q -0.6,0 -0.6,0.72 v 4 q 0,1.12 0.44,1.6 0.44,0.44 1.48,0.44 h 11.28 v 2.32 z"
         style="font-family:Gyparody;-inkscape-font-specification:Gyparody"
         id="path1154" />
      <path
         d="m 150.02754,350.76422 q -1.32,0 -1.32,-1.72 v -4.36 q 0,-1.52 -0.64,-2.04 -0.64,-0.56 -2.16,-0.56 h -8 v 8.68 h -4.08 v -32.12 h 14.52 q 1.28,0 2.08,0.2 0.84,0.2 1.28,0.76 0.48,0.56 0.64,1.6 0.2,1.04 0.2,2.76 v 12.88 q 0,1.08 -0.2,1.84 -0.2,0.72 -0.6,1.2 -0.4,0.44 -1,0.68 -0.6,0.24 -1.44,0.32 0.84,0.08 1.44,0.28 0.6,0.16 1,0.6 0.4,0.4 0.6,1.12 0.2,0.72 0.2,1.84 v 4.48 q 0,0.68 0.16,1 0.2,0.32 0.6,0.56 z m -1.32,-22.6 q 0,-1.84 -0.48,-2.4 -0.44,-0.6 -1.8,-0.6 h -8.52 v 14.6 h 8 q 1.52,0 2.16,-0.52 0.64,-0.52 0.64,-1.96 z"
         style="font-family:Gyparody;-inkscape-font-specification:Gyparody"
         id="path1151" />
      <path
         d="m 167.54747,350.76422 q -1.8,0 -2.52,-0.68 -0.72,-0.72 -0.72,-2.6 v -9.04 h 4.16 v 7.96 q 0,1.12 0.44,1.6 0.44,0.44 1.48,0.44 h 5.96 q 1.04,0 1.48,-0.44 0.44,-0.48 0.44,-1.6 v -27.76 h 4.2 v 28.84 q 0,1.88 -0.72,2.6 -0.68,0.68 -2.48,0.68 z"
         style="font-family:Gyparody;-inkscape-font-specification:Gyparody"
         id="path1148" />
      <path
         d="m 189.3474,350.76422 q -1.8,0 -2.52,-0.68 -0.68,-0.72 -0.68,-2.6 v -23.52 q 0,-1.68 0.16,-2.72 0.2,-1.08 0.68,-1.64 0.52,-0.56 1.36,-0.76 0.88,-0.2 2.24,-0.2 h 12.84 v 6.52 h -10.72 q -0.72,0 -1.2,0.12 -0.48,0.12 -0.76,0.48 -0.28,0.32 -0.4,0.92 -0.12,0.6 -0.12,1.52 v 10.56 q 0,0.6 0.6,0.6 h 12.4 v 2.32 h -12.4 q -0.6,0 -0.6,0.72 v 4 q 0,1.12 0.44,1.6 0.44,0.44 1.48,0.44 h 11.28 v 2.32 z"
         style="font-family:Gyparody;-inkscape-font-specification:Gyparody"
         id="path1145" />
      <path
         d="m 210.02733,350.76422 q -1.8,0 -2.52,-0.68 -0.68,-0.72 -0.68,-2.6 v -23.52 q 0,-1.68 0.16,-2.72 0.2,-1.08 0.68,-1.64 0.52,-0.56 1.36,-0.76 0.88,-0.2 2.24,-0.2 h 9.28 q 1.36,0 2.24,0.2 0.88,0.2 1.36,0.76 0.52,0.56 0.68,1.64 0.2,1.04 0.2,2.72 v 23.52 q 0,1.88 -0.72,2.6 -0.68,0.68 -2.48,0.68 z m 11.2,-22.56 q 0,-1.84 -0.56,-2.44 -0.52,-0.6 -2,-0.6 h -5.52 q -0.76,0 -1.24,0.12 -0.48,0.12 -0.76,0.48 -0.28,0.32 -0.4,0.92 -0.12,0.6 -0.12,1.52 v 18.2 q 0,1.12 0.44,1.6 0.44,0.44 1.52,0.44 h 6.68 q 1.04,0 1.48,-0.44 0.48,-0.48 0.48,-1.6 z"
         style="font-family:Gyparody;-inkscape-font-specification:Gyparody"
         id="path1142" />
      <path
         d="m 233.02731,342.64422 v 8.12 h -4.2 v -32.12 h 14.4 q 1.16,0 1.92,0.2 0.76,0.2 1.2,0.8 0.48,0.56 0.64,1.6 0.2,1.04 0.2,2.72 v 15.16 q 0,1.08 -0.16,1.76 -0.16,0.68 -0.56,1.08 -0.4,0.4 -1.04,0.56 -0.6,0.12 -1.52,0.12 z m 10.16,-14.4 q 0,-0.96 -0.12,-1.56 -0.12,-0.6 -0.48,-0.92 -0.32,-0.36 -0.92,-0.48 -0.6,-0.12 -1.52,-0.12 h -7.12 v 15.2 h 8.08 q 1.16,0 1.6,-0.44 0.48,-0.48 0.48,-1.64 z"
         style="font-family:Gyparody;-inkscape-font-specification:Gyparody"
         id="path1139" />
      <path
         d="m 264.34723,350.76422 -0.84,-7.4 h -9.76 l -0.76,7.4 h -4.12 l 3.08,-30.16 q 0.2,-1.96 1.68,-1.96 h 10.32 q 0.76,0 1.12,0.52 0.36,0.52 0.44,1.44 l 3,30.16 z m -2.68,-24.88 q -0.12,-0.96 -0.76,-0.96 h -4.64 q -0.6,0 -0.72,0.96 l -1.6,14.8 q 0,0.32 0.36,0.32 h 8.64 q 0.32,0 0.32,-0.32 z"
         style="font-family:Gyparody;-inkscape-font-specification:Gyparody"
         id="path1136" />
      <path
         d="m 287.54722,350.76422 q -1.32,0 -1.32,-1.72 v -4.36 q 0,-1.52 -0.64,-2.04 -0.64,-0.56 -2.16,-0.56 h -8 v 8.68 h -4.08 v -32.12 h 14.52 q 1.28,0 2.08,0.2 0.84,0.2 1.28,0.76 0.48,0.56 0.64,1.6 0.2,1.04 0.2,2.76 v 12.88 q 0,1.08 -0.2,1.84 -0.2,0.72 -0.6,1.2 -0.4,0.44 -1,0.68 -0.6,0.24 -1.44,0.32 0.84,0.08 1.44,0.28 0.6,0.16 1,0.6 0.4,0.4 0.6,1.12 0.2,0.72 0.2,1.84 v 4.48 q 0,0.68 0.16,1 0.2,0.32 0.6,0.56 z m -1.32,-22.6 q 0,-1.84 -0.48,-2.4 -0.44,-0.6 -1.8,-0.6 h -8.52 v 14.6 h 8 q 1.52,0 2.16,-0.52 0.64,-0.52 0.64,-1.96 z"
         style="font-family:Gyparody;-inkscape-font-specification:Gyparody"
         id="path1133" />
      <path
         d="m 293.78718,350.76422 v -32.12 h 13.76 q 1.36,0 2.24,0.2 0.88,0.2 1.36,0.76 0.52,0.56 0.68,1.64 0.2,1.04 0.2,2.72 v 23.52 q 0,1.88 -0.72,2.6 -0.72,0.68 -2.52,0.68 z m 14.44,-22.56 q 0,-1.84 -0.56,-2.44 -0.52,-0.6 -2,-0.6 h -8.04 v 23.28 h 8.64 q 1.04,0 1.48,-0.44 0.48,-0.48 0.48,-1.6 z"
         style="font-family:Gyparody;-inkscape-font-specification:Gyparody"
         id="path1130" />
      <path
         d="m 315.54715,350.76422 v -2.32 h 12.28 q 1.04,0 1.48,-0.44 0.44,-0.48 0.44,-1.6 v -3.76 h -11 q -1.8,0 -2.52,-0.68 -0.68,-0.72 -0.68,-2.6 v -20.72 h 4 v 19.64 q 0,1.12 0.44,1.6 0.44,0.48 1.52,0.48 h 8.24 v -21.72 h 4 v 28.84 q 0,1.88 -0.68,2.6 -0.68,0.68 -2.48,0.68 z"
         style="font-family:Gyparody;-inkscape-font-specification:Gyparody"
         id="path1127" />
      <path
         d="m 338.02711,350.76422 v -4.64 h 4.56 v 4.64 z m 0,-6.92 v -25.2 h 4.56 v 25.2 z"
         style="font-family:Gyparody;-inkscape-font-specification:Gyparody"
         id="path1124" />
    </g>
  </g>
</svg>
